<?xml version="1.0" encoding="UTF-8"?>
<svg id="Lager_1" xmlns="http://www.w3.org/2000/svg" viewBox="0 0 1983.39 710.83">
  <defs>
    <style>
      .cls-1 {
        fill: #1A1A1A;
      }
    </style>
  </defs>
  <g>
    <path class="cls-1" d="M856.27,235.68h80.19l17.67,52.59h41.24l-75.19-213.29h-47.7l-75.09,213.29h41.24l17.64-52.59ZM895.5,118.73h1.67l28.87,85.92h-59.35l28.82-85.92Z"/>
    <path class="cls-1" d="M896.33,61.86c5.83,0,11.12-1.39,15.88-4.17,4.76-2.78,8.54-6.51,11.35-11.19,2.81-4.69,4.22-9.87,4.22-15.57s-1.41-10.88-4.22-15.57c-2.81-4.69-6.59-8.42-11.35-11.2-4.76-2.77-10.05-4.16-15.88-4.16s-11.04,1.39-15.83,4.16c-4.8,2.78-8.59,6.51-11.4,11.2-2.81,4.69-4.22,9.88-4.22,15.57,0,8.54,3.07,15.83,9.22,21.87,6.15,6.04,13.55,9.06,22.24,9.06ZM886.18,20.99c2.74-2.74,6.13-4.11,10.16-4.11,4.09-.07,7.51,1.28,10.25,4.06,2.74,2.78,4.12,6.11,4.12,10s-1.39,7.2-4.17,9.95c-2.78,2.74-6.18,4.15-10.2,4.22-4.03,0-7.42-1.39-10.16-4.17-2.74-2.78-4.12-6.11-4.12-10s1.37-7.2,4.12-9.94Z"/>
    <path class="cls-1" d="M1129,133.31c-8.23-4.72-17.86-7.09-28.9-7.09-11.94,0-21.96,2.65-30.05,7.92-8.09,5.28-13.97,12.39-17.65,21.34h-1.88v-27.18h-36.03v159.97h37.7v-93.73c0-7.71,1.44-14.27,4.32-19.69,2.88-5.41,6.87-9.56,11.98-12.44,5.1-2.88,10.95-4.33,17.55-4.33,9.72,0,17.34,3.03,22.86,9.07,5.52,6.04,8.28,14.4,8.28,25.1v96.02h37.7v-101.85c.07-12.78-2.17-23.64-6.72-32.61-4.55-8.95-10.93-15.79-19.16-20.51Z"/>
    <path class="cls-1" d="M1211.96,277.29c9.97,5.79,21.09,8.7,33.38,8.7,9.17,0,16.78-1.39,22.86-4.17,6.08-2.78,10.97-6.21,14.69-10.31,3.71-4.09,6.54-8.08,8.49-11.98h1.87v30.31c0,11.81-3.51,20.29-10.52,25.46-7.02,5.17-15.86,7.76-26.56,7.76-7.57,0-13.84-1.02-18.8-3.07-4.96-2.05-8.9-4.62-11.82-7.7-2.91-3.09-5.14-6.2-6.66-9.33l-33.95,8.23c2.29,7.42,6.38,14.19,12.29,20.3,5.9,6.11,13.71,10.99,23.43,14.64,9.72,3.65,21.35,5.47,34.89,5.47,14.37,0,27.21-2.22,38.53-6.67,11.32-4.44,20.24-11.14,26.77-20.1,6.53-8.95,9.79-20.27,9.79-33.95v-162.57h-37.19v26.45h-2.08c-1.88-3.89-4.62-8.04-8.23-12.45-3.61-4.41-8.45-8.19-14.52-11.35-6.08-3.16-13.8-4.74-23.18-4.74-12.29,0-23.43,3.15-33.43,9.43-10,6.28-17.93,15.48-23.8,27.6-5.87,12.12-8.8,26.96-8.8,44.52s2.93,31.92,8.8,43.48c5.87,11.56,13.78,20.23,23.74,26.04ZM1222.12,181.68c2.84-7.6,7.08-13.6,12.7-17.97,5.62-4.37,12.64-6.56,21.04-6.56s14.98,2.11,20.56,6.3c5.59,4.2,9.83,10.09,12.71,17.66,2.88,7.57,4.32,16.38,4.32,26.45s-1.45,18.96-4.37,26.24c-2.92,7.29-7.19,12.88-12.81,16.77-5.62,3.89-12.43,5.83-20.41,5.83s-15.22-2.03-20.88-6.09c-5.66-4.06-9.93-9.76-12.81-17.08-2.88-7.33-4.32-15.88-4.32-25.67s1.42-18.28,4.27-25.88Z"/>
    <path class="cls-1" d="M1465.98,285.73c9.65-3.79,17.58-9.13,23.8-16.04,6.21-6.91,10.43-15.02,12.65-24.32l-35.2-3.96c-1.67,4.51-4.13,8.3-7.4,11.35-3.27,3.06-7.11,5.36-11.56,6.93-4.44,1.56-9.4,2.34-14.89,2.34-8.19,0-15.34-1.75-21.45-5.26-6.11-3.5-10.87-8.57-14.27-15.21-3.28-6.4-4.97-14.06-5.08-22.96h111.41v-11.56c0-14.02-1.95-26.12-5.83-36.29-3.89-10.17-9.22-18.56-15.99-25.15-6.77-6.59-14.54-11.47-23.32-14.63-8.79-3.16-18.11-4.74-27.96-4.74-15.28,0-28.57,3.49-39.89,10.47-11.32,6.98-20.12,16.7-26.4,29.17-6.29,12.46-9.43,26.92-9.43,43.37s3.13,31.26,9.37,43.59c6.25,12.32,15.19,21.83,26.82,28.54,11.63,6.7,25.46,10.05,41.5,10.05,12.43,0,23.47-1.89,33.12-5.67ZM1411.1,161.16c5.83-3.71,12.6-5.57,20.31-5.57,7.22,0,13.56,1.64,19.01,4.9,5.45,3.26,9.7,7.72,12.76,13.38,3.05,5.66,4.62,12.1,4.69,19.31h-75.21c.36-6.27,1.98-12.08,4.86-17.44,3.23-6,7.76-10.87,13.59-14.58Z"/>
    <polygon class="cls-1" points="982.87 368.26 935.7 368.26 852.49 466.27 849.88 466.27 849.88 368.26 811.24 368.26 811.24 581.55 849.88 581.55 849.88 518.02 873.53 490.11 937.16 581.55 983.61 581.55 900.4 463.97 982.87 368.26"/>
    <path class="cls-1" d="M1099.47,429.81c-11.45-6.88-24.99-10.31-40.61-10.31s-29.16,3.44-40.62,10.31c-11.45,6.88-20.32,16.53-26.61,28.96-6.29,12.43-9.43,26.9-9.43,43.43s3.14,30.97,9.43,43.32c6.29,12.36,15.15,21.97,26.61,28.85,11.46,6.87,25,10.31,40.62,10.31s29.16-3.44,40.61-10.31c11.45-6.88,20.32-16.49,26.61-28.85,6.28-12.36,9.43-26.81,9.43-43.32s-3.15-31-9.43-43.43c-6.29-12.43-15.16-22.08-26.61-28.96ZM1093.07,528.54c-2.81,7.91-7.07,14.22-12.76,18.9-5.69,4.69-12.78,7.03-21.24,7.03s-15.88-2.34-21.61-7.03c-5.73-4.69-10-10.99-12.81-18.9-2.81-7.91-4.22-16.73-4.22-26.45s1.41-18.66,4.22-26.61c2.81-7.95,7.08-14.29,12.81-19.01,5.73-4.72,12.93-7.08,21.61-7.08s15.55,2.36,21.24,7.08c5.69,4.72,9.94,11.06,12.76,19.01,2.81,7.95,4.22,16.82,4.22,26.61s-1.41,18.54-4.22,26.45Z"/>
    <path class="cls-1" d="M1335.01,419.5c-11.6,0-21.61,2.66-30.05,7.97-8.44,5.31-14.43,12.42-17.96,21.29h-1.67c-3.06-9.02-8.31-16.15-15.77-21.39-7.47-5.25-16.62-7.87-27.45-7.87s-19.89,2.59-27.59,7.76c-7.71,5.17-13.23,12.34-16.56,21.5h-1.87v-27.18h-36.03v159.97h37.7v-97.27c0-6.6,1.32-12.37,3.96-17.34,2.63-4.96,6.18-8.81,10.62-11.56,4.44-2.74,9.37-4.12,14.79-4.12,7.98,0,14.46,2.47,19.42,7.4,4.97,4.93,7.45,11.52,7.45,19.79v103.1h36.97v-99.77c0-9.02,2.55-16.37,7.65-22.03,5.1-5.66,12.2-8.49,21.3-8.49,7.64,0,14.1,2.32,19.38,6.93,5.27,4.62,7.91,11.89,7.91,21.82v101.54h37.81v-107.37c0-17.84-4.66-31.42-13.96-40.72-9.3-9.3-21.32-13.96-36.03-13.96Z"/>
    <path class="cls-1" d="M1590.96,419.5c-11.6,0-21.61,2.66-30.05,7.97-8.44,5.31-14.43,12.42-17.96,21.29h-1.67c-3.06-9.02-8.31-16.15-15.78-21.39-7.47-5.25-16.61-7.87-27.44-7.87s-19.89,2.59-27.6,7.76c-7.71,5.17-13.23,12.34-16.56,21.5h-1.87v-27.18h-36.03v159.97h37.7v-97.27c0-6.6,1.32-12.37,3.96-17.34,2.63-4.96,6.18-8.81,10.62-11.56,4.44-2.74,9.37-4.12,14.79-4.12,7.98,0,14.46,2.47,19.42,7.4,4.97,4.93,7.45,11.52,7.45,19.79v103.1h36.97v-99.77c0-9.02,2.55-16.37,7.65-22.03,5.1-5.66,12.2-8.49,21.3-8.49,7.64,0,14.1,2.32,19.38,6.93,5.27,4.62,7.91,11.89,7.91,21.82v101.54h37.81v-107.37c0-17.84-4.66-31.42-13.96-40.72-9.3-9.3-21.32-13.96-36.03-13.96Z"/>
    <path class="cls-1" d="M1773.89,514.27c0,8.13-1.68,14.88-5.05,20.26-3.36,5.38-7.65,9.42-12.86,12.13-5.21,2.7-10.59,4.06-16.14,4.06-9.03,0-16.32-2.99-21.87-8.96-5.56-5.97-8.34-14.02-8.34-24.16v-96.02h-37.7v101.85c0,12.78,2.26,23.66,6.77,32.65,4.51,8.99,10.78,15.83,18.8,20.51,8.02,4.69,17.27,7.04,27.75,7.04,12.01,0,22.13-2.85,30.36-8.54,8.23-5.7,14.14-13.02,17.75-21.98h1.67v28.43h36.55v-159.97h-37.7v92.69Z"/>
    <path class="cls-1" d="M1976.68,447.09c-4.55-8.95-10.94-15.79-19.16-20.51-8.23-4.72-17.86-7.09-28.9-7.09-11.94,0-21.96,2.65-30.05,7.92-8.09,5.28-13.97,12.39-17.65,21.34h-1.87v-27.18h-36.04v159.97h37.7v-93.73c0-7.71,1.44-14.27,4.32-19.69,2.88-5.41,6.88-9.56,11.98-12.44,5.1-2.88,10.95-4.33,17.55-4.33,9.72,0,17.34,3.03,22.86,9.07,5.52,6.04,8.28,14.4,8.28,25.1v96.02h37.7v-101.85c.07-12.78-2.17-23.64-6.72-32.61Z"/>
  </g>
  <g>
    <path class="cls-1" d="M460.56,486.17l-66.75-89.64c.97-1.22,1.9-2.46,2.81-3.72l106.76,35.53c-10.65,21.81-25.25,41.36-42.8,57.83h-.02ZM144.24,427.43l106.82-35.12c.89,1.28,1.86,2.5,2.81,3.74l-66.56,89.95c-17.73-16.66-32.42-36.47-43.07-58.58M186.24,199.7l66.93,89.86c-.83,1.1-1.72,2.19-2.52,3.33l-106.52-35.45c10.45-21.73,24.79-41.27,42.08-57.75l.02.02ZM504.04,257.88l-106.68,35.06c-1.01-1.48-2.14-2.88-3.23-4.3l66.56-89.95c17.91,16.8,32.68,36.85,43.35,59.19M412.52,339.23l106.87-35.12c2.46,12.39,3.77,25.15,3.77,38.25s-1.41,27-4.07,39.89l-106.64-35.49c.08-1.48.22-2.91.22-4.39,0-1.05-.11-2.07-.15-3.12h0ZM348.49,426.94c1.9-.55,3.77-1.18,5.61-1.86l66.95,89.9c-21.97,12.23-46.49,20.43-72.57,23.62v-111.66ZM293.31,424.9c2.02.75,4.07,1.43,6.17,2.05v111.66c-26.14-3.21-50.73-11.44-72.74-23.71l66.57-89.99ZM299.48,257.75c-2.46.71-4.86,1.53-7.24,2.44l-66.78-89.66c22.33-12.68,47.36-21.19,74.02-24.44v111.66ZM354.65,259.8c-2.02-.75-4.07-1.44-6.17-2.05v-111.66c26.14,3.21,50.73,11.44,72.74,23.71l-66.57,90ZM323.99,381.75c-21.87,0-39.68-17.68-39.68-39.41s17.81-39.41,39.68-39.41,39.68,17.68,39.68,39.41-17.81,39.41-39.68,39.41M124.82,342.34c0-13.26,1.35-26.17,3.85-38.7l106.78,35.53c-.04,1.06-.16,2.11-.16,3.17,0,1.28.14,2.52.2,3.8l-106.78,35.1c-2.54-12.58-3.89-25.59-3.89-38.9M323.99,95.86c-136.84,0-248.17,110.58-248.17,246.49s111.34,246.49,248.17,246.49,248.18-110.58,248.18-246.49-111.34-246.49-248.18-246.49"/>
    <path class="cls-1" d="M42,53.41v520.49l281.99,95.21,281.99-95.21V53.41H42ZM323.99,710.83c-4.58,0-9.16-.73-13.53-2.21L28.48,613.4c-17.04-5.75-28.48-21.63-28.48-39.49V11.69h647.98v562.21c0,17.86-11.44,33.74-28.48,39.49l-281.98,95.22c-4.37,1.47-8.95,2.21-13.53,2.21v.02Z"/>
  </g>
</svg>