<svg id="Lager_1" data-name="Lager 1" xmlns="http://www.w3.org/2000/svg" viewBox="0 0 98.97 32.03"><defs><style>.cls-1{fill:#e30613;}.cls-2{fill:#fff;}</style></defs><path d="M285.87,416.36h.88v3.71h4.49v-3.71h.89v8.82h-.89v-4.25h-4.49v4.25h-.88Z" transform="translate(-249.1 -406.27)"/><path d="M294,418.65h.84v3.05a6.52,6.52,0,0,0,.12,1.54,1.71,1.71,0,0,0,.69.95,2.1,2.1,0,0,0,1.21.35,2.06,2.06,0,0,0,1.19-.34,1.75,1.75,0,0,0,.68-.89,6.06,6.06,0,0,0,.13-1.61v-3.05h.86v3.21a5,5,0,0,1-.32,2,2.39,2.39,0,0,1-.94,1.07,3.46,3.46,0,0,1-3.19,0,2.43,2.43,0,0,1-1-1.08,5.22,5.22,0,0,1-.32-2.08Z" transform="translate(-249.1 -406.27)"/><path d="M308,416.14v9h-.83v-1.12a3.58,3.58,0,0,1-1.18,1,3.3,3.3,0,0,1-1.44.32,3.18,3.18,0,0,1-2.36-1,3.48,3.48,0,0,1,0-4.85,3.21,3.21,0,0,1,2.38-1,3,3,0,0,1,1.45.34,3.26,3.26,0,0,1,1.14,1v-3.72Zm-3.35,3.16a2.56,2.56,0,0,0-1.3.35,2.62,2.62,0,0,0-.94,1,2.72,2.72,0,0,0-.35,1.32,2.76,2.76,0,0,0,1.3,2.3,2.51,2.51,0,0,0,1.28.35,2.61,2.61,0,0,0,1.3-.35,2.39,2.39,0,0,0,1-.94,2.69,2.69,0,0,0,.33-1.34,2.63,2.63,0,0,0-.74-1.89A2.5,2.5,0,0,0,304.61,419.3Z" transform="translate(-249.1 -406.27)"/><path d="M310.59,416a.68.68,0,0,1,.69.7.62.62,0,0,1-.2.48.65.65,0,0,1-.49.21.63.63,0,0,1-.48-.21.62.62,0,0,1-.2-.48.68.68,0,0,1,.2-.5A.66.66,0,0,1,310.59,416Zm-.41,2.68H311v6.53h-.83Z" transform="translate(-249.1 -406.27)"/><path d="M313.19,416.14H314v5.15l3-2.64h1.23l-3.59,3.12,3.8,3.41h-1.19L314,422.25v2.93h-.83Z" transform="translate(-249.1 -406.27)"/><path d="M322.83,419.38l-.54.55a2,2,0,0,0-1.32-.65,1,1,0,0,0-.7.27.85.85,0,0,0-.29.63.92.92,0,0,0,.24.6,3.27,3.27,0,0,0,1,.69,3.73,3.73,0,0,1,1.27.94,1.69,1.69,0,0,1,.34,1,1.82,1.82,0,0,1-.57,1.36,2,2,0,0,1-1.41.56,2.38,2.38,0,0,1-1.08-.25,2.27,2.27,0,0,1-.85-.68l.53-.6a1.82,1.82,0,0,0,1.36.73,1.19,1.19,0,0,0,.86-.32,1,1,0,0,0,.36-.76.94.94,0,0,0-.24-.64,3.6,3.6,0,0,0-1.05-.7,3.4,3.4,0,0,1-1.21-.9,1.69,1.69,0,0,1-.32-1,1.65,1.65,0,0,1,.51-1.24,1.77,1.77,0,0,1,1.28-.49A2.68,2.68,0,0,1,322.83,419.38Z" transform="translate(-249.1 -406.27)"/><path d="M323.46,418.65h.89l2.19,4.77,2.17-4.77h.9l-3,6.53h-.15Z" transform="translate(-249.1 -406.27)"/><path d="M336.93,418.65v6.53h-.83v-1.12a3.61,3.61,0,0,1-1.19,1,3.3,3.3,0,0,1-1.44.32,3.18,3.18,0,0,1-2.36-1,3.45,3.45,0,0,1,0-4.85,3.21,3.21,0,0,1,2.38-1,3.08,3.08,0,0,1,1.46.34,3.42,3.42,0,0,1,1.14,1v-1.2Zm-3.36.65a2.55,2.55,0,0,0-2.24,1.31,2.66,2.66,0,0,0,0,2.64,2.63,2.63,0,0,0,.95,1,2.54,2.54,0,0,0,1.28.35,2.65,2.65,0,0,0,1.31-.35,2.36,2.36,0,0,0,.94-.94,2.78,2.78,0,0,0-.41-3.23A2.5,2.5,0,0,0,333.57,419.3Z" transform="translate(-249.1 -406.27)"/><path d="M339.12,416.14H340v9h-.84Z" transform="translate(-249.1 -406.27)"/><path d="M342,416.14h.84v9H342Z" transform="translate(-249.1 -406.27)"/><path d="M348.07,419.38l-.54.55a2,2,0,0,0-1.32-.65,1,1,0,0,0-.7.27.85.85,0,0,0-.29.63.92.92,0,0,0,.24.6,3.27,3.27,0,0,0,1,.69,3.89,3.89,0,0,1,1.28.94,1.68,1.68,0,0,1,.33,1,1.82,1.82,0,0,1-.57,1.36,2,2,0,0,1-1.41.56,2.38,2.38,0,0,1-1.08-.25,2.35,2.35,0,0,1-.85-.68l.53-.6a1.82,1.82,0,0,0,1.36.73,1.23,1.23,0,0,0,.87-.32,1,1,0,0,0,.35-.76.94.94,0,0,0-.24-.64,3.45,3.45,0,0,0-1.05-.7,3.26,3.26,0,0,1-1.2-.9,1.62,1.62,0,0,1-.32-1A1.64,1.64,0,0,1,345,419a1.77,1.77,0,0,1,1.29-.49A2.66,2.66,0,0,1,348.07,419.38Z" transform="translate(-249.1 -406.27)"/><path d="M285.87,426.72h.83v5.16l3-2.64H291l-3.6,3.12,3.81,3.41H290l-3.29-2.94v2.94h-.83Z" transform="translate(-249.1 -406.27)"/><path d="M294.73,429.08a3.22,3.22,0,0,1,2.5,1.09,3.39,3.39,0,0,1,.9,2.36,3.43,3.43,0,0,1-.95,2.39,3.45,3.45,0,0,1-4.9,0,3.43,3.43,0,0,1-.95-2.39,3.37,3.37,0,0,1,.9-2.35A3.21,3.21,0,0,1,294.73,429.08Zm0,.82a2.43,2.43,0,0,0-1.79.77,2.57,2.57,0,0,0-.76,1.87,2.61,2.61,0,0,0,.35,1.32,2.34,2.34,0,0,0,.92.95,2.57,2.57,0,0,0,1.28.33,2.54,2.54,0,0,0,1.28-.33,2.43,2.43,0,0,0,.93-.95,2.7,2.7,0,0,0,.34-1.32,2.57,2.57,0,0,0-.76-1.87A2.43,2.43,0,0,0,294.73,429.9Z" transform="translate(-249.1 -406.27)"/><path d="M299.57,429.24h.84v1.13a3.24,3.24,0,0,1,.9-.91,2.59,2.59,0,0,1,1.34-.38,2.11,2.11,0,0,1,.9.19,1.8,1.8,0,0,1,.7.49,2.67,2.67,0,0,1,.47.88,3.05,3.05,0,0,1,1-1.16,2.45,2.45,0,0,1,1.35-.4,2.11,2.11,0,0,1,1.2.34,2.07,2.07,0,0,1,.77.95,5.06,5.06,0,0,1,.25,1.84v3.56h-.86v-3.56a4.61,4.61,0,0,0-.15-1.44,1.29,1.29,0,0,0-.51-.64,1.52,1.52,0,0,0-.86-.24,1.89,1.89,0,0,0-1.12.36,2,2,0,0,0-.74,1,6,6,0,0,0-.24,2v2.55H304v-3.34a5.7,5.7,0,0,0-.15-1.61,1.36,1.36,0,0,0-.51-.67,1.52,1.52,0,0,0-.88-.26,1.93,1.93,0,0,0-1.09.35,2.14,2.14,0,0,0-.75.95,5.13,5.13,0,0,0-.24,1.82v2.76h-.84Z" transform="translate(-249.1 -406.27)"/><path d="M311.43,429.24h.83v1.13a3.4,3.4,0,0,1,.91-.91,2.59,2.59,0,0,1,1.34-.38,2.17,2.17,0,0,1,.9.19,2,2,0,0,1,.7.49,2.67,2.67,0,0,1,.46.88,3.05,3.05,0,0,1,1.05-1.16,2.48,2.48,0,0,1,1.36-.4,2,2,0,0,1,2,1.29,5.29,5.29,0,0,1,.25,1.84v3.56h-.86v-3.56a4.61,4.61,0,0,0-.15-1.44,1.25,1.25,0,0,0-.52-.64,1.52,1.52,0,0,0-.86-.24,1.89,1.89,0,0,0-1.12.36,2.08,2.08,0,0,0-.74,1,6,6,0,0,0-.23,2v2.55h-.84v-3.34a5.7,5.7,0,0,0-.15-1.61,1.31,1.31,0,0,0-.51-.67,1.47,1.47,0,0,0-.87-.26,1.91,1.91,0,0,0-1.09.35,2.08,2.08,0,0,0-.75.95,5.09,5.09,0,0,0-.25,1.82v2.76h-.83Z" transform="translate(-249.1 -406.27)"/><path d="M323,429.24h.84v3.05a6,6,0,0,0,.12,1.54,1.68,1.68,0,0,0,.68.95,2.13,2.13,0,0,0,1.22.34,2.08,2.08,0,0,0,1.19-.33,1.78,1.78,0,0,0,.68-.9,6.55,6.55,0,0,0,.12-1.6v-3.05h.87v3.21a5,5,0,0,1-.32,2,2.41,2.41,0,0,1-.95,1.07,3.44,3.44,0,0,1-3.18,0,2.4,2.4,0,0,1-1-1.08,5.28,5.28,0,0,1-.31-2.08Z" transform="translate(-249.1 -406.27)"/><path d="M330.63,429.24h.84v1.17a3.38,3.38,0,0,1,1.12-1,2.73,2.73,0,0,1,1.33-.33,2.28,2.28,0,0,1,1.3.37,2.22,2.22,0,0,1,.84,1,5.32,5.32,0,0,1,.27,2v3.36h-.83v-3.11a7.82,7.82,0,0,0-.1-1.51,1.55,1.55,0,0,0-1.65-1.3,2.08,2.08,0,0,0-1.37.51,2.36,2.36,0,0,0-.79,1.24,8.77,8.77,0,0,0-.12,1.78v2.39h-.84Z" transform="translate(-249.1 -406.27)"/><rect class="cls-1" width="32.3" height="32.03"/><path class="cls-2" d="M271,408.49a7.26,7.26,0,0,0-1.41.2,4.29,4.29,0,0,0-.58.26l-.36.2c-1,.5-2.06,1.08-3.12,1.53a.32.32,0,0,0-.16.32c.16.21.46.15.69.2h.47a5.13,5.13,0,0,0,1.25-.24,22,22,0,0,1,2.86-.85,3.28,3.28,0,0,1,1.25,0,3.48,3.48,0,0,1,2.39,1.69,5,5,0,0,1,.55,1.42c0,.07,0,.15-.1.17-.35,0-.35-.44-.53-.64a4.45,4.45,0,0,0-1.83-1.56,4.14,4.14,0,0,0-2.9,0,25.65,25.65,0,0,0-3.18,1.8c-.34.19-.7.3-1,.49a.25.25,0,0,0-.06.36l.21.09a5.6,5.6,0,0,0,1.53-.14c.81-.29,1.58-.69,2.36-1a3,3,0,0,1,2.09-.27,2.33,2.33,0,0,1,1.25,1.11.81.81,0,0,1,.12.4.32.32,0,0,1-.43,0c-.18-.1-.19-.32-.28-.49a5.56,5.56,0,0,0-1-.65c-.19,0-.38-.14-.57-.09-.16.32,0,.59.1.89a3,3,0,0,0,.51.88.1.1,0,0,1-.1.12,3.66,3.66,0,0,0-1.92.86,5.27,5.27,0,0,0-1.71,2.19,15.13,15.13,0,0,0-.63,2.41,6.79,6.79,0,0,0-.08,1.12h2.81s4.24,0,4.35,0,0-.24,0-.34-.12-.4-.06-.61.21,0,.32,0c0-.26-.19-.52-.19-.82l-.07-.43a2.85,2.85,0,0,1,.22-1c.13-.18.26-.39.47-.43a.13.13,0,0,1,.12.12,4.49,4.49,0,0,0-.12,1.37c.09.08.26-.17.3,0a6.18,6.18,0,0,0-.13.75,2.88,2.88,0,0,0,.32,1c.21,0,.1-.5.4-.25a1.89,1.89,0,0,0,.94.91c.26.09.55.13.83.2.08,0,.08-.18.07-.26a6.72,6.72,0,0,0-1-2.21,1.38,1.38,0,0,1,0-1,.22.22,0,0,1,.21,0,5,5,0,0,0,1.22,1c.1,0,.21,0,.23-.13s-.11-.45.07-.59.37.53.69.29a1.43,1.43,0,0,0,.18-1.05,13.81,13.81,0,0,1-1.2-2.16,2.21,2.21,0,0,0-.3-1.05c.09-.17.3-.19.47-.28a2,2,0,0,0,.69-.4,1.54,1.54,0,0,0,.42-.68c0-.15-.21-.15-.34-.17a3.65,3.65,0,0,0-1,.13c-.22.08-.24.36-.5.36s-.1-.17-.18-.26a10.28,10.28,0,0,0-1.43-2.72,5.42,5.42,0,0,0-1.72-1.43,6.78,6.78,0,0,0-2.47-.59C271.19,408.56,271.1,408.45,271,408.49Z" transform="translate(-249.1 -406.27)"/><path class="cls-2" d="M256,408.38a3.5,3.5,0,0,0-1.52.41,8.75,8.75,0,0,0-1,.46l-.09,0-1.6.74-.7.27a.29.29,0,0,0-.19.39,1.46,1.46,0,0,0,.81.1l1-.1c.52-.08,1-.21,1.5-.31a6.71,6.71,0,0,1,2.56-.45l.55,0,.57.15a3.09,3.09,0,0,1,1.81,1.61,6.65,6.65,0,0,1,.47,1.43.17.17,0,0,1-.17.17c-.13.07-.21-.08-.23-.17a5.75,5.75,0,0,0-1.31-1.89,3.5,3.5,0,0,0-1.85-.56,5.27,5.27,0,0,0-1.12.13,7,7,0,0,0-1.72.75h0l-.21.08c-.71.41-1.4.83-2.13,1.17l-.64.32a.28.28,0,0,0,0,.24,1.57,1.57,0,0,0,.69.12,7.38,7.38,0,0,0,2.15-.47c1-.35,1.87-1,3-.78a2,2,0,0,1,1.41,1.38.18.18,0,0,1-.13.17c-.36,0-.46-.41-.68-.62a2,2,0,0,0-.64-.36,1.64,1.64,0,0,0-1-.17,1.73,1.73,0,0,0,.37,1l.48.62c0,.09,0,.14-.1.17l-1,.28-.69.33-.59.56a7.44,7.44,0,0,0-1,1.34,7.75,7.75,0,0,0-.53,1.19,10.67,10.67,0,0,0-.6,2.81l0,.07h7.23c-.06-.52-.2-.91-.28-1.41,0,0,0-.1.07-.1s.3.3.44.38c.07-.26-.13-.45-.13-.72a3.46,3.46,0,0,1,0-1.24c.09-.23.26-.56.55-.56s.17.11.16.2a5.07,5.07,0,0,0,0,2.26,3,3,0,0,0,.33.92c.18-.07.11-.33.31-.43l.08,0,.38.68c.19,0,.18-.42.45-.29l.66.58c.08.06.12.22.24.18a2,2,0,0,0-.13-1.19,4.38,4.38,0,0,1-.73-1.18,1.35,1.35,0,0,1,.07-1.06.18.18,0,0,1,.19,0,3.94,3.94,0,0,0,1,.86c.08,0,.19.06.27,0l.05-.08c0-.21-.13-.39-.06-.58s.19,0,.27.06.3.39.56.36.2-.33.31-.48a1.8,1.8,0,0,0-.3-1.07,13.77,13.77,0,0,1-.89-1.66V415a3,3,0,0,1-.23-.76c.16-.13.38-.13.55-.23l.3-.22a4.44,4.44,0,0,0,.46-.75.42.42,0,0,0,0-.27l-.2-.06a2.43,2.43,0,0,0-1.16.25c-.12.11-.3.26-.47.15-.61-1.23-1-2.66-2.14-3.55a7.44,7.44,0,0,0-1.22-.79l-.75-.25a5.49,5.49,0,0,0-1.29-.16,2.48,2.48,0,0,0-.86,0Z" transform="translate(-249.1 -406.27)"/><path class="cls-2" d="M259,434s-.09.61-.1,1a4.3,4.3,0,0,0,0,.73h7.26c0-.25-.13-.45-.17-.68a1.69,1.69,0,0,1,0-.74c.13-.13.29.12.39,0a4.53,4.53,0,0,1,.07-1.68.94.94,0,0,1,.48-.38c.13,0,.3-.09.35.08s-.16.56-.18.84l0,.72a3.6,3.6,0,0,0,.38,1.47,7.66,7.66,0,0,0,.41.68c.08-.09.22-.34.38-.17l.34.36c.21-.06.09-.45.38-.45.37.2.65.45,1,.67a1,1,0,0,0,0-.51c0-.81-.84-1.18-1.07-1.89-.06-.31-.11-.7.2-.91.29,0,.42.37.65.53s.41.37.69.24,0-.49.11-.72c.08-.07.16,0,.23.06s.23.34.43.4.28-.2.38-.35l.08-.35v-.29a23.69,23.69,0,0,1-1.23-2.18,2.21,2.21,0,0,1,0-.77c-.07-.25-.22-.48-.3-.74.13-.23.45-.19.64-.34a2.39,2.39,0,0,0,.87-1.11c0-.13-.11-.15-.19-.15a3.88,3.88,0,0,0-1.22.28c-.08.13-.19.35-.38.32s-.17-.08-.2-.17a7.19,7.19,0,0,0-.61-1.68l-.58-1.13a4.6,4.6,0,0,0-1.05-1.15,5.4,5.4,0,0,0-2.54-1.05,7.47,7.47,0,0,0-4,.71,16.69,16.69,0,0,1-2.14.84l-1.33.38a.26.26,0,0,0-.06.27c.19.25.51.24.79.32l.79.05,1.27-.18c.94-.17,1.88-.49,2.84-.66h.68a3.8,3.8,0,0,1,1.57.36,3.14,3.14,0,0,1,1.55,1.3l.2.4a3.49,3.49,0,0,1,.29.9c0,.09-.08.19-.17.19s-.22,0-.27-.17a3.92,3.92,0,0,0-2.56-2.26,4.56,4.56,0,0,0-3.4.6,22.82,22.82,0,0,1-2.48,1.55l-1,.51c-.08.1-.16.18-.13.29a2.61,2.61,0,0,0,1.52.31c1.33-.17,2.37-1.11,3.62-1.49a1.55,1.55,0,0,1,1.12,0,1.81,1.81,0,0,1,.79.57,2,2,0,0,1,.3.7.2.2,0,0,1-.18.18.47.47,0,0,1-.37-.26c0-.3-.3-.43-.49-.58a1.61,1.61,0,0,0-.94-.34l0,.12a3.82,3.82,0,0,0,.28,1c.1.17.25.36.23.55-.3.15-.66.18-1,.32a3.48,3.48,0,0,0-1.55,1.06s-.08,0-.12.09a7,7,0,0,0-1.05,1.89A9.56,9.56,0,0,0,259,434" transform="translate(-249.1 -406.27)"/></svg>