<?xml version="1.0" encoding="utf-8"?>
<!-- Generator: Adobe Illustrator 22.0.1, SVG Export Plug-In . SVG Version: 6.00 Build 0)  -->
<svg version="1.1" id="Lager_1" xmlns="http://www.w3.org/2000/svg" xmlns:xlink="http://www.w3.org/1999/xlink" x="0px" y="0px"
	 viewBox="0 0 987 164.7" style="enable-background:new 0 0 987 164.7;" xml:space="preserve">
<style type="text/css">
	.st0{fill:#FFED00;}
	.st1{fill:#E30613;}
</style>
<g>
	<g>
		<path d="M35.8,83l-0.3,6.4H1.5C1.8,82.2,2,72.3,2,59.7C2,48.9,1.8,40,1.5,33h8.1C9.2,38.8,9,47.7,9,59.7c0,9.9-0.2,17.8-0.5,23.7
			C17.2,83.4,26.3,83.3,35.8,83z"/>
		<path d="M68.6,33c-0.2,4.4-0.4,9.3-0.5,14.6C68.1,52.9,68,58.8,68,65.2c0,4.6-0.4,8.5-1.2,11.5c-0.8,3-2,5.6-3.7,7.7
			c-1.7,2.1-3.8,3.6-6.4,4.6c-2.6,1-5.7,1.5-9.4,1.5c-2.8,0-5.3-0.3-7.5-0.9l0.6-6.3c2,1,4.2,1.4,6.4,1.4c2.5,0,4.7-0.4,6.5-1.1
			c1.9-0.7,3.3-1.8,4.5-3.3c1.1-1.5,1.9-3.3,2.4-5.5c0.5-2.2,0.7-5.1,0.7-8.6c0-13.1-0.2-24.2-0.6-33.2H68.6z"/>
		<path d="M131.4,33c-0.1,5.5-0.2,10.5-0.3,15.3c-0.1,4.7-0.1,9.2-0.1,13.2c0,19.3-7.6,29-22.9,29c-4,0-7.4-0.6-10.2-1.7
			c-2.8-1.1-5.2-2.9-7-5.2c-1.8-2.4-3.2-5.3-4-8.9c-0.9-3.6-1.3-7.8-1.3-12.7c0-4.3,0-8.8-0.1-13.6c-0.1-4.8-0.1-9.9-0.3-15.4h8.2
			c-0.3,11-0.5,19.6-0.5,25.8c0,5,0.2,9.1,0.7,12.3c0.5,3.2,1.4,5.8,2.6,7.9s2.8,3.6,4.7,4.5s4.3,1.3,7.3,1.3c3.1,0,5.6-0.4,7.5-1.3
			c1.9-0.9,3.5-2.3,4.7-4.4c1.2-2,2.1-4.6,2.6-7.8c0.5-3.2,0.8-7.4,0.8-12.5c0-3.1-0.1-6.7-0.2-11c-0.1-4.3-0.3-9.2-0.5-14.8H131.4z
			"/>
		<path d="M181.8,74.7c0,10.7-7.4,16-22.3,16c-5.4,0-10.2-0.6-14.5-1.9l1.5-6.8c4.8,1.7,9.5,2.5,13.8,2.5c9.8,0,14.7-2.8,14.7-8.3
			c0-2.8-1.3-5.2-3.8-7.2c-1.7-1.3-5.1-3.1-10-5.3c-5.3-2.3-8.9-4.5-11-6.5c-2.9-2.7-4.4-6.1-4.4-10.2c0-4.3,1.5-7.7,4.5-10.4
			c3.3-3,8-4.5,14.1-4.5c6.9,0,11.6,0.4,14.1,1.3l-1,6.9c-4.4-1.4-9-2.1-14-2.1c-7.4,0-11.1,2.5-11.1,7.4c0,2.4,1.1,4.4,3.2,6
			c1.4,1,4.4,2.5,9.2,4.6c5.4,2.3,9.3,4.6,11.7,6.7C180,66.2,181.8,70.1,181.8,74.7z"/>
		<path d="M241,59.1c0,8.2-2.6,15.4-7.9,21.6c-5.2,6.2-12.5,9.3-21.7,9.3c-3,0-8-0.2-15-0.6c0.4-8.9,0.6-18.8,0.6-29.6
			c0-10.2-0.2-19.1-0.6-26.8h4.8c1.2,0,2.9,0,5.3-0.1c2.4-0.1,3.9-0.1,4.7-0.1c10.2,0,17.7,2.5,22.6,7.5
			C238.6,45.2,241,51.5,241,59.1z M233.5,61.1c0-6.4-2-11.8-6.1-16.1c-4.1-4.3-10.4-6.5-18.9-6.5c-1.2,0-2.9,0.1-5,0.4
			c0.2,6.7,0.3,13.6,0.3,20.7c0,7.8,0.2,15.7,0.5,23.7c2.3,0.5,4.5,0.7,6.7,0.7c7.6,0,13.3-2.3,17-6.8
			C231.6,72.8,233.5,67.4,233.5,61.1z"/>
		<path d="M301.7,89.3h-9.1c0-1.9-1.8-8-5.5-18.2h-25c-3.6,10.1-5.4,16.1-5.4,18.2H248c0-1.1,3.7-10.3,11.2-27.7
			c7.4-17.4,11.2-27,11.2-28.7h10c0,1.7,3.6,11.1,10.7,28.3S301.7,87.7,301.7,89.3z M285.1,65.4c-6.8-16.9-10.2-25.9-10.2-27h-0.5
			c0,0.9-3.5,9.9-10.5,27H285.1z"/>
		<path d="M346.8,83l-0.3,6.4h-34.1c0.3-7.1,0.5-17,0.5-29.6c0-10.9-0.2-19.8-0.5-26.8h8.1c-0.3,5.8-0.5,14.7-0.5,26.8
			c0,9.9-0.2,17.8-0.5,23.7C328.2,83.4,337.3,83.3,346.8,83z"/>
		<path d="M391.1,74.7c0,10.7-7.4,16-22.3,16c-5.4,0-10.2-0.6-14.5-1.9l1.5-6.8c4.8,1.7,9.5,2.5,13.8,2.5c9.8,0,14.7-2.8,14.7-8.3
			c0-2.8-1.3-5.2-3.8-7.2c-1.7-1.3-5.1-3.1-10-5.3c-5.3-2.3-8.9-4.5-11-6.5c-2.9-2.7-4.4-6.1-4.4-10.2c0-4.3,1.5-7.7,4.5-10.4
			c3.3-3,8-4.5,14.1-4.5c6.9,0,11.6,0.4,14.1,1.3l-1,6.9c-4.4-1.4-9-2.1-14-2.1c-7.4,0-11.1,2.5-11.1,7.4c0,2.4,1.1,4.4,3.2,6
			c1.4,1,4.4,2.5,9.2,4.6c5.4,2.3,9.3,4.6,11.7,6.7C389.2,66.2,391.1,70.1,391.1,74.7z"/>
	</g>
	<g>
		<path d="M640.1,89.3h-9.5c0-0.3-1.6-2.8-4.9-7.5c-3.8-5.5-7.3-10-10.4-13.5c-4.3-4.8-7.4-7.2-9.5-7.2h-1.3
			c0,6.8,0.1,16.2,0.4,28.3h-8.1c0.4-8.9,0.6-18.8,0.6-29.6c0-10.2-0.2-19.1-0.6-26.8h8.1c-0.3,7.7-0.4,15.5-0.4,23.4h1
			c1.6,0,5.5-3.7,11.9-11c6.3-7.4,9.5-11.5,9.5-12.3h9c0,0.9-3.1,4.4-9.2,10.7s-10.7,10.5-13.7,12.7v0.4c3.3,1.3,8.8,7,16.6,17.2
			C636.6,83.3,640.1,88.5,640.1,89.3z"/>
		<path d="M702.3,60.3c0,9.3-2.7,16.8-8.2,22.4S682.4,91,675.2,91c-6.9,0-12.9-2.6-18.1-7.7c-5.2-5.1-7.8-12-7.8-20.8
			c0-9.4,2.7-16.9,8.2-22.4c5.5-5.5,11.8-8.3,18.9-8.3c6.9,0,12.9,2.6,18.1,7.7C699.7,44.6,702.3,51.6,702.3,60.3z M694.6,61.3
			c0-7.4-2-13.2-5.9-17.3c-3.9-4.1-8.4-6.1-13.5-6.1c-4.7,0-8.9,2.2-12.6,6.5c-3.7,4.3-5.5,10-5.5,17.2c0,7.5,2,13.3,5.9,17.3
			c3.9,4.1,8.4,6.1,13.5,6.1c4.7,0,8.9-2.2,12.6-6.5C692.8,74.1,694.6,68.4,694.6,61.3z"/>
		<path d="M779.1,89.3H771c0-6.4-0.4-15.7-1.3-27.9c-0.9-12.2-1.4-19.5-1.4-21.9h-0.4c-2.9,9.4-6.5,19.6-11,30.5
			c-4.4,11-6.6,17.4-6.6,19.3h-5.8c0-2-2.1-8.6-6.2-19.6c-4.1-11.1-6.7-18.5-7.8-22.2c-1.1-3.8-1.8-6.4-2.3-8h-0.4
			c-0.1,4-0.7,11.9-1.7,23.9c-1.1,12-1.6,20.6-1.6,25.9h-7.4c0-0.3,1-8.2,2.9-23.8c2-15.6,2.9-26.4,2.9-32.5h11.4
			c0,3.2,2.3,11.1,6.9,23.8s6.9,20.4,6.9,23.1h0.4c0-2.7,2.6-10.4,7.8-23.1C761.4,44,764,36.1,764,33h11.1c0,6.1,0.7,16.9,2,32.4
			C778.4,80.8,779.1,88.8,779.1,89.3z"/>
		<path d="M858.8,89.3h-8.1c0-6.4-0.4-15.7-1.3-27.9c-0.9-12.2-1.4-19.5-1.4-21.9h-0.4c-2.9,9.4-6.5,19.6-11,30.5
			c-4.4,11-6.6,17.4-6.6,19.3h-5.8c0-2-2.1-8.6-6.2-19.6c-4.1-11.1-6.7-18.5-7.8-22.2c-1.1-3.8-1.8-6.4-2.3-8h-0.4
			c-0.1,4-0.7,11.9-1.7,23.9c-1.1,12-1.6,20.6-1.6,25.9h-7.4c0-0.3,1-8.2,2.9-23.8c2-15.6,2.9-26.4,2.9-32.5h11.4
			c0,3.2,2.3,11.1,6.9,23.8s6.9,20.4,6.9,23.1h0.4c0-2.7,2.6-10.4,7.8-23.1c5.2-12.7,7.8-20.7,7.8-23.7h11.1c0,6.1,0.7,16.9,2,32.4
			C858.1,80.8,858.8,88.8,858.8,89.3z"/>
		<path d="M923.3,33c-0.1,5.5-0.2,10.5-0.3,15.3c-0.1,4.7-0.1,9.2-0.1,13.2c0,19.3-7.6,29-22.9,29c-4,0-7.4-0.6-10.2-1.7
			c-2.8-1.1-5.2-2.9-7-5.2c-1.8-2.4-3.2-5.3-4-8.9c-0.9-3.6-1.3-7.8-1.3-12.7c0-4.3,0-8.8-0.1-13.6s-0.1-9.9-0.3-15.4h8.2
			c-0.3,11-0.5,19.6-0.5,25.8c0,5,0.2,9.1,0.7,12.3s1.4,5.8,2.6,7.9c1.3,2.1,2.8,3.6,4.7,4.5s4.3,1.3,7.3,1.3c3.1,0,5.6-0.4,7.5-1.3
			s3.5-2.3,4.7-4.4c1.2-2,2.1-4.6,2.6-7.8c0.5-3.2,0.8-7.4,0.8-12.5c0-3.1-0.1-6.7-0.2-11c-0.1-4.3-0.3-9.2-0.5-14.8H923.3z"/>
		<path d="M986.1,89.3H980c0-0.5-4.7-7.4-14.2-20.7c-9.9-14-15.5-22.8-16.9-26.5h-0.4c0.5,7,0.8,12.9,0.8,17.9
			c0,9.7,0.2,19.5,0.6,29.4h-7.3c0.5-9.4,0.7-19.3,0.7-29.6c0-10.2-0.2-19.1-0.7-26.8h8.3c0,0.8,4.4,7.4,13.1,19.7
			c9.1,13,14.3,21.4,15.6,25.4h0.4c-0.5-7-0.7-13-0.7-17.9c0-10.7-0.2-19.7-0.6-27.2h7.4c-0.5,7.6-0.7,16.6-0.7,26.8
			C985.3,70.1,985.6,80,986.1,89.3z"/>
	</g>
	<g>
		<path d="M561.5,1.3H425.2v92.2h0c0,0.2,0,0.5,0,0.7c0,38.1,30.5,69,68.1,69c37.6,0,68.1-30.9,68.1-69c0-0.2,0-0.5,0-0.7h0V1.3z"/>
	</g>
</g>
<path class="st0" d="M530.9,92.2c-2.5-2.7-2.7-6.6-3.6-10c0-4.6-2.2-8.9-3.6-13.2c2.1,0.7,4,1.9,6.2,2.3c0.4-0.2,1.1,0,1.1-0.5
	c-0.2-0.1-0.7-0.1-0.6-0.5c-1.6-0.8-2.6-2.7-3.7-4.3c-1.6-4.4-3.3-7.9-5.1-12.3c-1.4-3.9-3.8-7.4-7.3-10.4c-0.7-0.4,0.3-0.7,0.5-1.1
	c3.1-0.4,5.4-2.5,8.2-3.5c0.9-1.2-1-1.2-1.4-2c-3.2-1.1-6.3-2.5-9.7-3.1c-5.6-0.8-12,0.2-17.2-1.9c-4.8-1.2-9.9-1.5-14.1-4.1
	c-1,0-1.1-1.2-2.2-0.8c-0.6,0.4-1.3,0.3-1.7,1.1c-0.8,4.7-6.2,3.3-9.2,5.3c-1.2,1.1-3.3,0.8-4,2.5c0.2,1.4-0.8,2.5-1.9,3.5
	c-2.2,0.9-4.2,1.9-6.6,1.9c-2.1,0.8-3.7,2.7-6,2.8c-2.4,1.6-4.3,4.4-5.3,7.2c-0.6,0.7-1.7,1.1-2.2,1.9c-1.4,1.5-4.1,2.2-4.5,4.4
	c-0.3,0.7,0,1.4,0.7,1.4c5.7-1.8,13.1-1.4,19.1-0.4c1.5,0.8,3.3,0.8,4.9,1.2c2.1,0.7,2,3.3,3,5c-0.4,2.6-1.6,4.9-2.9,7.2
	c-1.7,3-5,4-7.7,5.5c-1.7,0.6-4.6,0.1-4.8,2.3c1.3,2.7,4.9,1.5,6.9,3.5c1.2-0.1,2.5,1,3.4-0.2c-0.1-1.8,1.1-2.9,1.1-4.6
	c0.1-0.7,1.2-0.7,1-1.5c1.7-0.6,3.2-1.5,4.9-1.9c0.7,0.9,0.2,2.2,0.3,3.2c1,1.3,2.1,3.2,1.1,4.8c0.3,2.1,0.3,4.4,2.4,5.5
	c-1.4-4.2,2.5-6.7,4.7-9.7c0.6-1,0.5-2.4,1.3-3.1c2,1.3,0.7,4.1,0.6,5.8c1.2-0.1,1.8-1.1,2.5-1.8c2.2-2.5,2-6.8,1.1-9.4
	c2.6-1.9,6-2.3,8.8-3.9c1.2-0.1,2.6-1.3,3.7-0.4c0.5,3,1.3,7.1-0.1,10.2c-0.7,3.3-4.4,3.6-6.8,5c-1.2,0.6-2.9,0.1-3.9,0.7
	c1.1,0.9,2.5,1.4,3.2,2.7c-3.9,2.1-7.4,6-10.5,9.5c-5.2,5.2-11.2,8.7-18.3,9.2c-1.3-0.1-2.6-0.9-3.9-0.1c-0.1,0.3,0.3,0.4,0.5,0.7
	c2.3,1.7,4.9,1.5,7.7,2.2c-2.9,3.7-4,8.7-3.9,13.3c-0.4,4.2,1.1,8.2,2.9,11.7c1,1.1,1.1,3.2,2.8,3.5c-2.3-6.6,1-12.8,4.6-17.9
	c0.8-0.8,1.7-1.9,2.7-2.1c-1.9,3.4-4.2,6.7-4,11.1l1.7-2c3.6-1.9,7.2-3.4,11-4.7c1.4,0.2,2.7-2.1,3.8-0.6c-2.3,2.3-3.4,5.7-6.2,7.2
	c3.1,0.3,5.8-1.6,8.4-2.6c-1.8,3.9-4.3,7.5-6.5,11.2c-2.7,4.7-6.9,7.4-10.8,10.7h0.2c7.4,0.1,13.6-3.8,19.7-7.1
	c1.8-1.2,3.8-2.5,5.4-4.1c1.5-1.2,3.5-2.3,4.5-3.7l0.1,0.1c0.4-0.7,1.6-1.3,2.2-1.8c0.4,3.7-2.4,6.5-4.3,9.4c4.3,0,8.4-3.6,10.5-7.5
	c1.1-1.5,1.4-3.5,2.5-4.9c0.8,2.4,2.3,4.7,4.3,6.4c4.8,3.9,10.5,6.5,16.5,6.2l-0.7-0.3c-3.8-5.3-6.2-11.3-6.8-17.7
	c0.4-1.3-1.1-2.5,0-3.6c2.2,1.8,4.2,5.2,7.2,6.2c-2.6-3.9-3-8.6-3.8-13.2c0-7.3-0.2-14.4,0-21.7C527.4,88.3,528.2,91.6,530.9,92.2z
	 M478.8,41c-0.7,0.8-1.7,1.5-2.7,1.7c-1-0.4-2.2-0.4-2.8-1.7c0.2-0.9,0.9-1.8,1.8-2.3c1.8,0.1,4.5-0.7,5.9,0.7
	C480.9,40.6,479.4,40.2,478.8,41z"/>
<g>
	<path class="st1" d="M524.2,19.7c2.3-0.4,4.9-2.9,6.9-0.2c-0.3,0.8,0.6,0.7,0.6,1.2c1.8,6.9,9.3,10.7,15.2,12.5
		c1.4,1.4,0.2,3.8,0.1,5.4c0,5,1.4,10.8,4.8,15.1c1.6,0.5,1.4,2.2,2,3.2c0.1,2.4-3.1,3.5-4.2,5.5c-2.8,3.8-3.3,9-1.4,13.2
		c0.1,3-3.6,2.9-4.8,5.2c-0.8,1.3-0.9,3-1.6,4.1c0.1,0.9,0.5,2.2,0.3,3.6c0.2,1.4-1.5,1.6-2.5,1.9c-3.7,2.4-5,6.4-7.2,9.9
		c-0.4,0.2-0.9,0.6-1.4,0.3c-0.6-0.3-0.3-1.6-0.2-2.2c1.9-5.1,4.6-10,6.2-15.3c0.6-0.9,1.6-2,0.9-3c1.1-6.8,3.3-12.3,2.7-18.9
		c0.9-4.2-1.9-7.6-2-11.3c-1.5-3.6-3.5-7.1-6.1-10l-0.6-0.1c-7.2-6.8-17.5-9.4-27.3-7.2c-2.3,0.1-5.3,0.6-7.4-0.6
		c-4.5-1.4-9.8-1.4-13.9-3.6l-3.1-1.3c3.5-1.1,7.5-4.1,7.6-8.3c2.2-0.7,4.2,0.9,6.4,1.1c4.3,0.5,7.9-1.4,10.4-4.6
		c1.4-0.6,1.9-2.6,3.7-2.4C513.1,15.7,517.5,21.2,524.2,19.7L524.2,19.7z"/>
	<path class="st1" d="M446.7,60.6c-1.4-0.2-3,0.3-4.5-0.1c0-0.7,0.4-1.6,0.6-2.4c1.5-0.1,3.2,0.1,4.7-0.1L446.7,60.6L446.7,60.6z"/>
	<path class="st1" d="M451.6,60.7c-1.3,0.2-3,0.1-4.1,0L448,58l4.5,0.2L451.6,60.7L451.6,60.7z"/>
	<path class="st1" d="M457.6,59.1c-0.8,0.9-0.8,2-2.2,1.4c-0.7,0.2-1.7,0.5-2.4,0c-0.3-0.6,0.3-1.3,0.2-2.1L457.6,59.1L457.6,59.1z"
		/>
	<path class="st1" d="M463.2,61.5c-1.3-0.5-3,0-4.4,0c-1.4,0-0.5-1.3-0.6-2C459.9,60.2,462.3,59.3,463.2,61.5L463.2,61.5z"/>
	<path class="st1" d="M464.4,65.3c-0.6,2.1-1.3,4-2.4,5.8c-4.7-0.6-9.7,0.9-14.2-1.1c-4.6-1.5-9.8-0.2-14.3,0.2
		c-0.7-0.4-0.7-1-0.3-1.6c5.5-3.6,12.8-2.4,19.1-1.2C456.4,67,460,65.1,464.4,65.3L464.4,65.3z"/>
	<path class="st1" d="M460.7,72.9c-1.2,1-2.3,2.5-3.9,2.7c-0.1-1-0.7-2-0.3-3L460.7,72.9L460.7,72.9z"/>
	<path class="st1" d="M455,73.1c0.1,1.1,0.1,2.1,0.7,2.9c-0.9,0.7-2.1,1.5-3.4,1.4c-0.1-1.6-2-2.7-1.6-4.4
		C452.1,73.3,453.7,73.3,455,73.1L455,73.1z"/>
</g>
</svg>
